# This file uses centimeters as units for non-parametric coordinates.

mtllib 170607_tool_container.mtl
g default
v -1.220000 -3.020592 -0.000000
v -1.220000 -3.020592 2.700000
v -1.220000 -2.870592 0.150000
v -1.220000 -2.870592 2.450000
v -1.220000 -2.870592 2.600000
v -1.220000 -2.870592 2.700000
v -1.220000 2.889408 0.150000
v -1.220000 2.889408 2.450000
v -1.220000 2.889408 2.600000
v -1.220000 2.889408 2.700000
v -1.220000 3.039408 -0.000000
v -1.220000 3.039408 2.700000
v -1.140000 -2.870592 0.150000
v -1.140000 -2.870592 2.450000
v -1.140000 2.889408 0.150000
v -1.140000 2.889408 2.450000
v -1.070000 -3.020592 0.150000
v -1.070000 -3.020592 2.450000
v -1.070000 -3.020592 2.600000
v -1.070000 -3.020592 2.700000
v -1.070000 -2.976633 0.150000
v -1.070000 -2.976633 2.450000
v -1.070000 -2.940592 0.150000
v -1.070000 -2.940592 2.450000
v -1.070000 -2.870592 2.520000
v -1.070000 -2.870592 2.600000
v -1.070000 -2.870592 2.700000
v -1.070000 2.889408 2.520000
v -1.070000 2.889408 2.600000
v -1.070000 2.889408 2.700000
v -1.070000 2.959408 0.150000
v -1.070000 2.959408 2.450000
v -1.070000 3.039408 0.150000
v -1.070000 3.039408 2.450000
v -1.070000 3.039408 2.600000
v -1.070000 3.039408 2.700000
v -1.001894 -3.020592 0.150000
v -1.001894 -3.020592 2.450000
v -0.946054 -3.020592 0.150000
v -0.946054 -3.020592 2.450000
v -0.187420 -3.546289 0.150000
v -0.187420 -3.546289 2.450000
v -0.170999 -3.520847 0.150000
v -0.170999 -3.520847 2.450000
v 0.170999 -3.520847 0.150000
v 0.170999 -3.520847 2.450000
v 0.187420 -3.546289 -0.000000
v 0.187420 -3.546289 2.450000
v 0.946054 -3.020592 0.150000
v 0.946054 -3.020592 2.450000
v 1.001894 -3.020592 -0.000000
v 1.001894 -3.020592 2.450000
v 1.070000 -3.020592 0.150000
v 1.070000 -3.020592 2.450000
v 1.070000 -3.020592 2.600000
v 1.070000 -3.020592 2.700000
v 1.070000 -2.976633 0.150000
v 1.070000 -2.976633 2.450000
v 1.070000 -2.940592 0.150000
v 1.070000 -2.940592 2.450000
v 1.070000 -2.870592 2.520000
v 1.070000 -2.870592 2.600000
v 1.070000 -2.870592 2.700000
v 1.070000 2.889408 2.520000
v 1.070000 2.889408 2.600000
v 1.070000 2.889408 2.700000
v 1.070000 2.959408 0.150000
v 1.070000 2.959408 2.450000
v 1.070000 3.039408 0.150000
v 1.070000 3.039408 2.450000
v 1.070000 3.039408 2.600000
v 1.070000 3.039408 2.700000
v 1.140000 -2.870592 0.150000
v 1.140000 -2.870592 2.450000
v 1.140000 2.889408 0.150000
v 1.140000 2.889408 2.450000
v 1.220000 -3.020592 -0.000000
v 1.220000 -3.020592 2.700000
v 1.220000 -2.870592 0.150000
v 1.220000 -2.870592 2.450000
v 1.220000 -2.870592 2.600000
v 1.220000 -2.870592 2.700000
v 1.220000 2.889408 0.150000
v 1.220000 2.889408 2.450000
v 1.220000 2.889408 2.600000
v 1.220000 2.889408 2.700000
v 1.220000 3.039408 -0.000000
v 1.220000 3.039408 2.700000
vn 0.000000 -0.000000 -1.000000
vn 0.000000 -0.000000 -1.000000
vn 0.000000 -0.000000 -1.000000
vn 0.000000 -0.000000 -1.000000
vn 0.000000 -0.000000 -1.000000
vn 0.000000 -0.000000 -1.000000
vn -0.542295 0.840188 -0.000000
vn -0.542295 0.840188 -0.000000
vn -0.542295 0.840188 -0.000000
vn -0.542295 0.840188 -0.000000
vn -0.542295 0.840188 -0.000000
vn -0.542295 0.840188 -0.000000
vn -0.542295 0.840188 -0.000000
vn -0.542295 0.840188 -0.000000
vn -0.542295 0.840188 -0.000000
vn -0.542295 0.840188 -0.000000
vn -0.542295 0.840188 -0.000000
vn -0.542295 0.840188 -0.000000
vn -0.840188 -0.542295 0.000000
vn -0.840188 -0.542295 0.000000
vn -0.840188 -0.542295 0.000000
vn -0.840188 -0.542295 0.000000
vn -0.840188 -0.542295 0.000000
vn -0.840188 -0.542295 0.000000
vn 0.542295 -0.840188 -0.000000
vn 0.542295 -0.840188 -0.000000
vn 0.542295 -0.840188 -0.000000
vn 0.542295 -0.840188 -0.000000
vn 0.542295 -0.840188 -0.000000
vn 0.542295 -0.840188 -0.000000
vn 0.542295 -0.840188 -0.000000
vn 0.542295 -0.840188 -0.000000
vn 0.542295 -0.840188 -0.000000
vn 0.542295 -0.840188 -0.000000
vn 0.542295 -0.840188 -0.000000
vn 0.542295 -0.840188 -0.000000
vn 0.000000 0.000000 1.000000
vn 0.000000 0.000000 1.000000
vn 0.000000 0.000000 1.000000
vn 0.000000 0.000000 1.000000
vn 0.000000 0.000000 1.000000
vn 0.000000 0.000000 1.000000
vn 0.000000 -0.000000 -1.000000
vn 0.000000 -0.000000 -1.000000
vn 0.000000 -0.000000 -1.000000
vn -1.000000 -0.000000 -0.000000
vn -1.000000 -0.000000 -0.000000
vn -1.000000 -0.000000 -0.000000
vn -1.000000 -0.000000 -0.000000
vn -1.000000 -0.000000 -0.000000
vn -1.000000 -0.000000 -0.000000
vn 0.000000 0.000000 1.000000
vn 0.000000 0.000000 1.000000
vn 0.000000 0.000000 1.000000
vn 0.000000 0.000000 1.000000
vn 0.000000 0.000000 1.000000
vn 0.000000 0.000000 1.000000
vn 0.000000 0.000000 1.000000
vn 0.000000 0.000000 1.000000
vn 0.000000 0.000000 1.000000
vn -0.542295 -0.840188 -0.000000
vn -0.542295 -0.840188 -0.000000
vn -0.542295 -0.840188 -0.000000
vn -0.542295 -0.840188 -0.000000
vn -0.542295 -0.840188 -0.000000
vn -0.542295 -0.840188 -0.000000
vn -0.542295 -0.840188 -0.000000
vn -0.542295 -0.840188 -0.000000
vn -0.542295 -0.840188 -0.000000
vn -0.542295 -0.840188 -0.000000
vn -0.542295 -0.840188 -0.000000
vn -0.542295 -0.840188 -0.000000
vn 0.542295 0.840188 0.000000
vn 0.542295 0.840188 0.000000
vn 0.542295 0.840188 0.000000
vn 0.542295 0.840188 0.000000
vn 0.542295 0.840188 0.000000
vn 0.542295 0.840188 0.000000
vn 0.542295 0.840188 0.000000
vn 0.542295 0.840188 0.000000
vn 0.542295 0.840188 0.000000
vn 0.542295 0.840188 0.000000
vn 0.542295 0.840188 0.000000
vn 0.542295 0.840188 0.000000
vn 0.840188 -0.542295 0.000000
vn 0.840188 -0.542295 0.000000
vn 0.840188 -0.542295 0.000000
vn 0.840188 -0.542295 0.000000
vn 0.840188 -0.542295 0.000000
vn 0.840188 -0.542295 0.000000
vn 0.000000 -0.000000 -1.000000
vn 0.000000 -0.000000 -1.000000
vn 0.000000 -0.000000 -1.000000
vn 0.000000 -0.000000 -1.000000
vn 0.000000 -0.000000 -1.000000
vn 0.000000 -0.000000 -1.000000
vn 0.000000 -0.000000 -1.000000
vn 0.000000 -0.000000 -1.000000
vn 0.000000 -0.000000 -1.000000
vn 0.000000 -0.000000 -1.000000
vn 0.000000 -0.000000 -1.000000
vn 0.000000 -0.000000 -1.000000
vn 0.000000 -0.000000 -1.000000
vn 0.000000 -0.000000 -1.000000
vn 0.000000 -0.000000 -1.000000
vn 0.000000 0.000000 1.000000
vn 0.000000 0.000000 1.000000
vn 0.000000 0.000000 1.000000
vn 1.000000 0.000000 0.000000
vn 1.000000 0.000000 0.000000
vn 1.000000 0.000000 0.000000
vn 1.000000 0.000000 0.000000
vn 1.000000 0.000000 0.000000
vn 1.000000 0.000000 0.000000
vn 0.000000 1.000000 -0.000000
vn 0.000000 1.000000 -0.000000
vn 0.000000 1.000000 -0.000000
vn 0.000000 1.000000 -0.000000
vn 0.000000 1.000000 -0.000000
vn 0.000000 1.000000 -0.000000
vn 0.000000 0.000000 1.000000
vn 0.000000 0.000000 1.000000
vn 0.000000 0.000000 1.000000
vn 0.000000 0.000000 1.000000
vn 0.000000 0.000000 1.000000
vn 0.000000 0.000000 1.000000
vn -1.000000 -0.000000 -0.000000
vn -1.000000 -0.000000 -0.000000
vn -1.000000 -0.000000 -0.000000
vn -1.000000 -0.000000 -0.000000
vn -1.000000 -0.000000 -0.000000
vn -1.000000 -0.000000 -0.000000
vn 0.000000 -1.000000 0.000000
vn 0.000000 -1.000000 0.000000
vn 0.000000 -1.000000 0.000000
vn 0.000000 -1.000000 0.000000
vn 0.000000 -1.000000 0.000000
vn 0.000000 -1.000000 0.000000
vn 0.000000 0.000000 1.000000
vn 0.000000 0.000000 1.000000
vn 0.000000 0.000000 1.000000
vn 0.000000 0.000000 1.000000
vn 0.000000 0.000000 1.000000
vn 0.000000 0.000000 1.000000
vn 0.000000 1.000000 -0.000000
vn 0.000000 1.000000 -0.000000
vn 0.000000 1.000000 -0.000000
vn 0.000000 1.000000 -0.000000
vn 0.000000 1.000000 -0.000000
vn 0.000000 1.000000 -0.000000
vn -1.000000 -0.000000 -0.000000
vn -1.000000 -0.000000 -0.000000
vn -1.000000 -0.000000 -0.000000
vn -1.000000 -0.000000 -0.000000
vn -1.000000 -0.000000 -0.000000
vn -1.000000 -0.000000 -0.000000
vn 0.000000 0.000000 1.000000
vn 0.000000 0.000000 1.000000
vn 0.000000 0.000000 1.000000
vn 0.000000 0.000000 1.000000
vn 0.000000 0.000000 1.000000
vn 0.000000 0.000000 1.000000
vn 0.000000 -1.000000 0.000000
vn 0.000000 -1.000000 0.000000
vn 0.000000 -1.000000 0.000000
vn 0.000000 -1.000000 0.000000
vn 0.000000 -1.000000 0.000000
vn 0.000000 -1.000000 0.000000
vn 1.000000 0.000000 0.000000
vn 1.000000 0.000000 0.000000
vn 1.000000 0.000000 0.000000
vn 1.000000 0.000000 0.000000
vn 1.000000 0.000000 0.000000
vn 1.000000 0.000000 0.000000
vn 0.000000 0.000000 1.000000
vn 0.000000 0.000000 1.000000
vn 0.000000 0.000000 1.000000
vn 0.000000 0.000000 1.000000
vn 0.000000 0.000000 1.000000
vn 0.000000 0.000000 1.000000
vn 0.000000 0.000000 1.000000
vn 0.000000 0.000000 1.000000
vn 0.000000 0.000000 1.000000
vn 0.000000 0.000000 1.000000
vn 0.000000 0.000000 1.000000
vn 0.000000 0.000000 1.000000
vn 0.000000 0.000000 1.000000
vn 0.000000 0.000000 1.000000
vn 0.000000 0.000000 1.000000
vn 0.000000 0.000000 1.000000
vn 0.000000 0.000000 1.000000
vn 0.000000 0.000000 1.000000
vn 0.000000 0.000000 1.000000
vn 0.000000 0.000000 1.000000
vn 0.000000 0.000000 1.000000
vn 0.000000 0.000000 1.000000
vn 0.000000 0.000000 1.000000
vn 0.000000 0.000000 1.000000
vn 0.000000 0.000000 1.000000
vn 0.000000 0.000000 1.000000
vn 0.000000 0.000000 1.000000
vn 0.000000 0.000000 1.000000
vn 0.000000 0.000000 1.000000
vn 0.000000 0.000000 1.000000
vn 0.000000 -0.000000 -1.000000
vn 0.000000 -0.000000 -1.000000
vn 0.000000 -0.000000 -1.000000
vn 0.000000 -0.000000 -1.000000
vn 0.000000 -0.000000 -1.000000
vn 0.000000 -0.000000 -1.000000
vn -0.000000 1.000000 -0.000000
vn -0.000000 1.000000 -0.000000
vn -0.000000 1.000000 -0.000000
vn 0.000000 1.000000 -0.000000
vn 0.000000 1.000000 -0.000000
vn 0.000000 1.000000 -0.000000
vn 0.000000 -0.000000 1.000000
vn 0.000000 -0.000000 1.000000
vn 0.000000 -0.000000 1.000000
vn 0.000000 -0.000000 1.000000
vn 0.000000 -0.000000 1.000000
vn 0.000000 -0.000000 1.000000
vn 0.000000 -1.000000 0.000000
vn 0.000000 -1.000000 0.000000
vn 0.000000 -1.000000 0.000000
vn 0.000000 -1.000000 0.000000
vn 0.000000 -1.000000 0.000000
vn 0.000000 -1.000000 0.000000
vn -1.000000 -0.000000 -0.000000
vn -1.000000 -0.000000 -0.000000
vn -1.000000 -0.000000 -0.000000
vn -1.000000 -0.000000 -0.000000
vn -1.000000 -0.000000 -0.000000
vn -1.000000 -0.000000 -0.000000
vn 1.000000 0.000000 0.000000
vn 1.000000 0.000000 0.000000
vn 1.000000 0.000000 0.000000
vn 1.000000 0.000000 0.000000
vn 1.000000 0.000000 0.000000
vn 1.000000 0.000000 0.000000
vn -0.000000 -0.000000 1.000000
vn -0.000000 -0.000000 1.000000
vn -0.000000 -0.000000 1.000000
vn -0.000000 -0.000000 1.000000
vn -0.000000 -0.000000 1.000000
vn -0.000000 -0.000000 1.000000
vn -1.000000 -0.000000 -0.000000
vn -1.000000 -0.000000 -0.000000
vn -1.000000 -0.000000 -0.000000
vn -1.000000 -0.000000 -0.000000
vn -1.000000 -0.000000 -0.000000
vn -1.000000 -0.000000 -0.000000
vn 0.000000 -0.000000 -1.000000
vn 0.000000 -0.000000 -1.000000
vn 0.000000 -0.000000 -1.000000
vn 0.000000 -0.000000 -1.000000
vn 0.000000 -0.000000 -1.000000
vn 0.000000 -0.000000 -1.000000
vn 0.000000 1.000000 -0.000000
vn 0.000000 1.000000 -0.000000
vn 0.000000 1.000000 -0.000000
vn 0.000000 1.000000 -0.000000
vn 0.000000 1.000000 -0.000000
vn 0.000000 1.000000 -0.000000
vn 0.000000 -0.000000 -1.000000
vn 0.000000 -0.000000 -1.000000
vn 0.000000 -0.000000 -1.000000
vn 0.000000 -0.000000 -1.000000
vn 0.000000 -0.000000 -1.000000
vn 0.000000 -0.000000 -1.000000
vn 0.000000 1.000000 -0.000000
vn 0.000000 1.000000 -0.000000
vn 0.000000 1.000000 -0.000000
vn 0.000000 1.000000 0.000000
vn 0.000000 1.000000 0.000000
vn 0.000000 1.000000 0.000000
vn -0.000000 -0.000000 1.000000
vn -0.000000 -0.000000 1.000000
vn -0.000000 -0.000000 1.000000
vn -0.000000 -0.000000 1.000000
vn -0.000000 -0.000000 1.000000
vn -0.000000 -0.000000 1.000000
vn 0.000000 -1.000000 0.000000
vn 0.000000 -1.000000 0.000000
vn 0.000000 -1.000000 0.000000
vn 0.000000 -1.000000 0.000000
vn 0.000000 -1.000000 0.000000
vn 0.000000 -1.000000 0.000000
vn 1.000000 0.000000 0.000000
vn 1.000000 0.000000 0.000000
vn 1.000000 0.000000 0.000000
vn 1.000000 0.000000 0.000000
vn 1.000000 0.000000 0.000000
vn 1.000000 0.000000 0.000000
vn -1.000000 -0.000000 -0.000000
vn -1.000000 -0.000000 -0.000000
vn -1.000000 -0.000000 -0.000000
vn -1.000000 -0.000000 -0.000000
vn -1.000000 -0.000000 -0.000000
vn -1.000000 -0.000000 -0.000000
vn 0.000000 -1.000000 0.000000
vn 0.000000 -1.000000 0.000000
vn 0.000000 -1.000000 0.000000
vn 0.000000 -1.000000 0.000000
vn 0.000000 -1.000000 0.000000
vn 0.000000 -1.000000 0.000000
vn 1.000000 0.000000 0.000000
vn 1.000000 0.000000 0.000000
vn 1.000000 0.000000 0.000000
vn 1.000000 0.000000 0.000000
vn 1.000000 0.000000 0.000000
vn 1.000000 0.000000 0.000000
vn 0.000000 1.000000 -0.000000
vn 0.000000 1.000000 -0.000000
vn 0.000000 1.000000 -0.000000
vn 0.000000 1.000000 -0.000000
vn 0.000000 1.000000 -0.000000
vn 0.000000 1.000000 -0.000000
vn 0.000000 0.000000 1.000000
vn 0.000000 0.000000 1.000000
vn 0.000000 0.000000 1.000000
vn 0.000000 0.000000 1.000000
vn 0.000000 0.000000 1.000000
vn 0.000000 0.000000 1.000000
vn 1.000000 0.000000 0.000000
vn 1.000000 0.000000 0.000000
vn 1.000000 0.000000 0.000000
vn 1.000000 0.000000 0.000000
vn 1.000000 0.000000 0.000000
vn 1.000000 0.000000 0.000000
vn -0.000000 -0.000000 1.000000
vn -0.000000 -0.000000 1.000000
vn -0.000000 -0.000000 1.000000
vn -0.000000 -0.000000 1.000000
vn -0.000000 -0.000000 1.000000
vn -0.000000 -0.000000 1.000000
vn 0.000000 -1.000000 0.000000
vn 0.000000 -1.000000 0.000000
vn 0.000000 -1.000000 0.000000
vn 0.000000 -1.000000 0.000000
vn 0.000000 -1.000000 0.000000
vn 0.000000 -1.000000 0.000000
vn -1.000000 -0.000000 -0.000000
vn -1.000000 -0.000000 -0.000000
vn -1.000000 -0.000000 -0.000000
vn -1.000000 -0.000000 -0.000000
vn -1.000000 -0.000000 -0.000000
vn -1.000000 -0.000000 -0.000000
vn -1.000000 -0.000000 -0.000000
vn -1.000000 -0.000000 -0.000000
vn -1.000000 -0.000000 -0.000000
vn -1.000000 -0.000000 -0.000000
vn -1.000000 -0.000000 -0.000000
vn -1.000000 -0.000000 -0.000000
vn -1.000000 -0.000000 -0.000000
vn -1.000000 -0.000000 -0.000000
vn -1.000000 -0.000000 -0.000000
vn -1.000000 -0.000000 -0.000000
vn -1.000000 -0.000000 -0.000000
vn -1.000000 -0.000000 -0.000000
vn -1.000000 -0.000000 -0.000000
vn -1.000000 -0.000000 -0.000000
vn -1.000000 -0.000000 -0.000000
vn -1.000000 -0.000000 -0.000000
vn -1.000000 -0.000000 -0.000000
vn -1.000000 -0.000000 -0.000000
vn -1.000000 -0.000000 -0.000000
vn -1.000000 -0.000000 -0.000000
vn -1.000000 -0.000000 -0.000000
vn -1.000000 -0.000000 -0.000000
vn -1.000000 -0.000000 -0.000000
vn -1.000000 -0.000000 -0.000000
vn -1.000000 -0.000000 -0.000000
vn -1.000000 -0.000000 -0.000000
vn -1.000000 -0.000000 -0.000000
vn -1.000000 -0.000000 -0.000000
vn -1.000000 -0.000000 -0.000000
vn -1.000000 -0.000000 -0.000000
vn 0.000000 1.000000 -0.000000
vn 0.000000 1.000000 -0.000000
vn 0.000000 1.000000 -0.000000
vn 0.000000 1.000000 -0.000000
vn 0.000000 1.000000 -0.000000
vn 0.000000 1.000000 -0.000000
vn 0.000000 1.000000 -0.000000
vn 0.000000 1.000000 -0.000000
vn 0.000000 1.000000 -0.000000
vn 0.000000 1.000000 -0.000000
vn 0.000000 1.000000 -0.000000
vn 0.000000 1.000000 -0.000000
vn 0.000000 1.000000 -0.000000
vn 0.000000 1.000000 -0.000000
vn 0.000000 1.000000 -0.000000
vn 0.000000 1.000000 -0.000000
vn 0.000000 1.000000 -0.000000
vn 0.000000 1.000000 -0.000000
vn 0.000000 1.000000 -0.000000
vn 0.000000 1.000000 -0.000000
vn 0.000000 1.000000 -0.000000
vn 0.000000 1.000000 -0.000000
vn 0.000000 1.000000 -0.000000
vn 0.000000 1.000000 -0.000000
vn 0.000000 1.000000 -0.000000
vn 0.000000 1.000000 -0.000000
vn 0.000000 1.000000 -0.000000
vn 0.000000 1.000000 -0.000000
vn 0.000000 1.000000 -0.000000
vn 0.000000 1.000000 -0.000000
vn 0.000000 1.000000 -0.000000
vn 0.000000 1.000000 -0.000000
vn 0.000000 1.000000 -0.000000
vn 0.000000 1.000000 -0.000000
vn 0.000000 1.000000 -0.000000
vn 0.000000 1.000000 -0.000000
vn 1.000000 0.000000 0.000000
vn 1.000000 0.000000 0.000000
vn 1.000000 0.000000 0.000000
vn 1.000000 0.000000 0.000000
vn 1.000000 0.000000 0.000000
vn 1.000000 0.000000 0.000000
vn 1.000000 0.000000 0.000000
vn 1.000000 0.000000 0.000000
vn 1.000000 0.000000 0.000000
vn 1.000000 0.000000 0.000000
vn 1.000000 0.000000 0.000000
vn 1.000000 0.000000 0.000000
vn 1.000000 0.000000 0.000000
vn 1.000000 0.000000 0.000000
vn 1.000000 0.000000 0.000000
vn 1.000000 0.000000 0.000000
vn 1.000000 0.000000 0.000000
vn 1.000000 0.000000 0.000000
vn 1.000000 0.000000 0.000000
vn 1.000000 0.000000 0.000000
vn 1.000000 0.000000 0.000000
vn 1.000000 0.000000 0.000000
vn 1.000000 0.000000 0.000000
vn 1.000000 0.000000 0.000000
vn 1.000000 0.000000 0.000000
vn 1.000000 0.000000 0.000000
vn 1.000000 0.000000 0.000000
vn 1.000000 0.000000 0.000000
vn 1.000000 0.000000 0.000000
vn 1.000000 0.000000 0.000000
vn 1.000000 0.000000 0.000000
vn 1.000000 0.000000 0.000000
vn 1.000000 0.000000 0.000000
vn 1.000000 0.000000 0.000000
vn 1.000000 0.000000 0.000000
vn 1.000000 0.000000 0.000000
vn 0.000000 -1.000000 0.000000
vn 0.000000 -1.000000 0.000000
vn 0.000000 -1.000000 0.000000
vn 0.000000 -1.000000 0.000000
vn 0.000000 -1.000000 0.000000
vn 0.000000 -1.000000 0.000000
vn 0.000000 -1.000000 0.000000
vn 0.000000 -1.000000 0.000000
vn 0.000000 -1.000000 0.000000
vn 0.000000 -1.000000 0.000000
vn 0.000000 -1.000000 0.000000
vn 0.000000 -1.000000 0.000000
vn 0.000000 -1.000000 0.000000
vn 0.000000 -1.000000 0.000000
vn 0.000000 -1.000000 0.000000
vn 0.000000 -1.000000 0.000000
vn 0.000000 -1.000000 0.000000
vn 0.000000 -1.000000 0.000000
vn 0.000000 -1.000000 0.000000
vn 0.000000 -1.000000 0.000000
vn 0.000000 -1.000000 0.000000
vn 0.000000 -1.000000 0.000000
vn 0.000000 -1.000000 0.000000
vn 0.000000 -1.000000 0.000000
vn 0.000000 -1.000000 0.000000
vn 0.000000 -1.000000 0.000000
vn 0.000000 -1.000000 0.000000
vn 0.000000 -1.000000 0.000000
vn 0.000000 -1.000000 0.000000
vn 0.000000 -1.000000 0.000000
vn 0.000000 -1.000000 0.000000
vn 0.000000 -1.000000 0.000000
vn 0.000000 -1.000000 0.000000
vn 0.000000 -1.000000 0.000000
vn 0.000000 -1.000000 0.000000
vn 0.000000 -1.000000 0.000000
vn 0.000000 -1.000000 0.000000
vn 0.000000 -1.000000 0.000000
vn 0.000000 -1.000000 0.000000
vn 0.000000 -1.000000 0.000000
vn 0.000000 -1.000000 0.000000
vn 0.000000 -1.000000 0.000000
vn 0.000000 -1.000000 0.000000
vn 0.000000 -1.000000 0.000000
vn 0.000000 -1.000000 0.000000
vn 0.000000 -1.000000 0.000000
vn 0.000000 -1.000000 0.000000
vn 0.000000 -1.000000 0.000000
vn 0.000000 -1.000000 0.000000
vn 0.000000 -1.000000 0.000000
vn 0.000000 -1.000000 0.000000
vn 0.000000 -1.000000 0.000000
vn 0.000000 -1.000000 0.000000
vn 0.000000 -1.000000 0.000000
vn 0.000000 -1.000000 0.000000
vn 0.000000 -1.000000 0.000000
vn 0.000000 -1.000000 0.000000
vn 0.000000 -1.000000 0.000000
vn 0.000000 -1.000000 0.000000
vn 0.000000 -1.000000 0.000000
vn 0.000000 -0.000000 -1.000000
vn 0.000000 -0.000000 -1.000000
vn 0.000000 -0.000000 -1.000000
vn 0.000000 -0.000000 -1.000000
vn 0.000000 -0.000000 -1.000000
vn 0.000000 -0.000000 -1.000000
s off
g _tool_container:Magazin1
usemtl _tool_container:Magazin:lambert2SG
f 51//1 47//2 49//3
f 49//4 47//5 45//6
f 60//7 49//8 50//9
f 60//10 59//11 49//12
f 49//13 45//14 50//15
f 50//16 45//17 46//18
f 46//19 45//20 48//21
f 48//22 45//23 47//24
f 58//25 52//26 57//27
f 57//28 52//29 51//30
f 51//31 52//32 48//33
f 47//34 51//35 48//36
f 52//37 50//38 48//39
f 48//40 50//41 46//42
f 52//43 58//44 54//45
usemtl _tool_container:Magazin:lambert3SG
f 58//46 57//47 54//48
f 54//49 57//50 53//51
f 57//52 51//53 53//54
usemtl _tool_container:Magazin:lambert2SG
f 38//55 42//56 40//57
f 40//58 42//59 44//60
f 21//61 37//62 22//63
f 22//64 37//65 38//66
f 38//67 37//68 41//69
f 42//70 38//71 41//72
f 24//73 40//74 23//75
f 23//76 40//77 39//78
f 39//79 40//80 44//81
f 43//82 39//83 44//84
f 42//85 41//86 44//87
f 44//88 41//89 43//90
f 37//91 39//92 41//93
f 41//94 39//95 43//96
f 22//97 38//98 18//99
usemtl _tool_container:Magazin:lambert3SG
f 50//100 40//101 60//102
f 60//103 40//104 24//105
usemtl _tool_container:Magazin:lambert2SG
f 37//106 21//107 17//108
usemtl _tool_container:Magazin:lambert3SG
f 19//109 26//110 20//111
f 20//112 26//113 27//114
f 26//115 5//116 27//117
f 27//118 5//119 6//120
f 27//121 6//122 20//123
f 20//124 6//125 2//126
f 71//127 65//128 72//129
f 72//130 65//131 66//132
f 65//133 85//134 66//135
f 66//136 85//137 86//138
f 66//139 86//140 72//141
f 72//142 86//143 88//144
f 81//145 62//146 82//147
f 82//148 62//149 63//150
f 62//151 55//152 63//153
f 63//154 55//155 56//156
f 56//157 78//158 63//159
f 63//160 78//161 82//162
f 9//163 29//164 10//165
f 10//166 29//167 30//168
f 29//169 35//170 30//171
f 30//172 35//173 36//174
f 36//175 12//176 30//177
f 30//178 12//179 10//180
f 71//181 35//182 65//183
f 65//184 35//185 29//186
f 65//187 62//188 85//189
f 85//190 62//191 81//192
f 19//193 55//194 26//195
f 26//196 55//197 62//198
f 26//199 29//200 5//201
f 5//202 29//203 9//204
f 4//205 8//206 14//207
f 14//208 8//209 16//210
f 3//211 4//212 13//213
f 13//214 4//215 14//216
f 7//217 3//218 15//219
f 15//220 3//221 13//222
f 8//223 7//224 16//225
f 16//226 7//227 15//228
usemtl _tool_container:Magazin:lambert2SG
f 16//229 15//230 14//231
f 14//232 15//233 13//234
usemtl _tool_container:Magazin:lambert3SG
f 33//235 34//236 31//237
f 31//238 34//239 32//240
f 69//241 33//242 67//243
f 67//244 33//245 31//246
f 70//247 69//248 68//249
f 68//250 69//251 67//252
f 34//253 70//254 32//255
f 32//256 70//257 68//258
usemtl _tool_container:Magazin:lambert2SG
f 68//259 67//260 32//261
f 32//262 67//263 31//264
usemtl _tool_container:Magazin:lambert3SG
f 84//265 80//266 76//267
f 76//268 80//269 74//270
f 80//271 79//272 74//273
f 74//274 79//275 73//276
f 79//277 83//278 73//279
f 73//280 83//281 75//282
f 83//283 84//284 75//285
f 75//286 84//287 76//288
usemtl _tool_container:Magazin:lambert2SG
f 75//289 76//290 73//291
f 73//292 76//293 74//294
usemtl _tool_container:Magazin:lambert3SG
f 62//295 65//296 61//297
f 61//298 65//299 64//300
f 65//301 29//302 64//303
f 64//304 29//305 28//306
f 29//307 26//308 28//309
f 28//310 26//311 25//312
f 26//313 62//314 25//315
f 25//316 62//317 61//318
usemtl _tool_container:Magazin:lambert2SG
f 25//319 61//320 28//321
f 28//322 61//323 64//324
usemtl _tool_container:Magazin:lambert3SG
f 21//325 22//326 17//327
f 17//328 22//329 18//330
f 59//331 23//332 49//333
f 49//334 23//335 39//336
usemtl _tool_container:Magazin:lambert4SG
f 24//337 23//338 60//339
f 60//340 23//341 59//342
usemtl _tool_container:Magazin:lambert3SG
f 4//343 9//344 8//345
f 4//346 5//347 9//348
f 4//349 2//350 5//351
f 4//352 1//353 2//354
f 4//355 3//356 1//357
f 1//358 3//359 7//360
f 11//361 7//362 8//363
f 12//364 8//365 9//366
f 10//367 12//368 9//369
f 1//370 7//371 11//372
f 2//373 6//374 5//375
f 12//376 11//377 8//378
f 33//379 11//380 34//381
f 33//382 69//383 11//384
f 11//385 69//386 87//387
f 87//388 69//389 70//390
f 88//391 70//392 71//393
f 72//394 88//395 71//396
f 70//397 34//398 71//399
f 71//400 34//401 35//402
f 35//403 34//404 12//405
f 36//406 35//407 12//408
f 11//409 12//410 34//411
f 88//412 87//413 70//414
f 84//415 81//416 80//417
f 84//418 85//419 81//420
f 84//421 88//422 85//423
f 84//424 87//425 88//426
f 84//427 83//428 87//429
f 87//430 83//431 79//432
f 77//433 79//434 80//435
f 78//436 80//437 81//438
f 82//439 78//440 81//441
f 87//442 79//443 77//444
f 88//445 86//446 85//447
f 78//448 77//449 80//450
f 37//451 17//452 1//453
f 39//454 1//455 77//456
f 49//457 77//458 51//459
f 49//460 39//461 77//462
f 38//463 19//464 18//465
f 38//466 40//467 19//468
f 19//469 40//470 50//471
f 55//472 50//473 52//474
f 54//475 55//476 52//477
f 54//478 78//479 55//480
f 54//481 77//482 78//483
f 54//484 53//485 77//486
f 77//487 53//488 51//489
f 19//490 50//491 55//492
f 39//493 37//494 1//495
f 78//496 56//497 55//498
f 20//499 2//500 19//501
f 19//502 2//503 18//504
f 18//505 2//506 1//507
f 17//508 18//509 1//510
usemtl _tool_container:Magazin:lambert2SG
f 77//511 1//512 87//513
f 87//514 1//515 11//516
