# This file uses centimeters as units for non-parametric coordinates.

mtllib 170608_dumpster_3.mtl
g default
v -2.305698 -1.205698 1.950000
v -2.305698 -1.205698 2.000000
v -2.305698 1.205698 1.950000
v -2.305698 1.205698 2.000000
v -2.250000 -1.150000 0.300000
v -2.250000 -1.150000 1.950000
v -2.250000 -0.850000 0.000000
v -2.250000 0.850000 0.000000
v -2.250000 1.150000 0.300000
v -2.250000 1.150000 1.950000
v -2.168041 -1.068041 0.355250
v -2.168041 -1.068041 2.000000
v -2.168041 1.068041 0.355250
v -2.168041 1.068041 2.000000
v 2.168041 -1.068041 0.355250
v 2.168041 -1.068041 2.000000
v 2.168041 1.068041 0.355250
v 2.168041 1.068041 2.000000
v 2.250000 -1.150000 0.300000
v 2.250000 -1.150000 1.950000
v 2.250000 -0.850000 0.000000
v 2.250000 0.850000 0.000000
v 2.250000 1.150000 0.300000
v 2.250000 1.150000 1.950000
v 2.305698 -1.205698 1.950000
v 2.305698 -1.205698 2.000000
v 2.305698 1.205698 1.950000
v 2.305698 1.205698 2.000000
vn -1.000000 -0.000000 0.000000
vn -1.000000 -0.000000 0.000000
vn -1.000000 -0.000000 0.000000
vn -1.000000 -0.000000 0.000000
vn -1.000000 -0.000000 0.000000
vn -1.000000 -0.000000 0.000000
vn 0.000000 -1.000000 0.000000
vn 0.000000 -1.000000 0.000000
vn 0.000000 -1.000000 0.000000
vn 0.000000 -1.000000 0.000000
vn 0.000000 -1.000000 0.000000
vn 0.000000 -1.000000 0.000000
vn 1.000000 -0.000000 -0.000000
vn 1.000000 -0.000000 -0.000000
vn 1.000000 -0.000000 -0.000000
vn 1.000000 -0.000000 -0.000000
vn 1.000000 -0.000000 -0.000000
vn 1.000000 -0.000000 -0.000000
vn 0.000000 1.000000 -0.000000
vn 0.000000 1.000000 -0.000000
vn 0.000000 1.000000 -0.000000
vn 0.000000 1.000000 -0.000000
vn 0.000000 1.000000 -0.000000
vn 0.000000 1.000000 -0.000000
vn 0.000000 0.000000 -1.000000
vn 0.000000 0.000000 -1.000000
vn 0.000000 0.000000 -1.000000
vn 0.000000 0.000000 -1.000000
vn 0.000000 0.000000 -1.000000
vn 0.000000 0.000000 -1.000000
vn 0.000000 0.000000 -1.000000
vn 0.000000 0.000000 -1.000000
vn 0.000000 0.000000 -1.000000
vn 0.000000 0.000000 -1.000000
vn 0.000000 0.000000 -1.000000
vn 0.000000 0.000000 -1.000000
vn 0.000000 0.000000 -1.000000
vn 0.000000 0.000000 -1.000000
vn 0.000000 0.000000 -1.000000
vn 0.000000 0.000000 -1.000000
vn 0.000000 0.000000 -1.000000
vn 0.000000 0.000000 -1.000000
vn 0.000000 0.000000 -1.000000
vn 0.000000 0.000000 -1.000000
vn 0.000000 0.000000 -1.000000
vn 0.000000 0.000000 -1.000000
vn 0.000000 0.000000 -1.000000
vn 0.000000 0.000000 -1.000000
vn -1.000000 -0.000000 0.000000
vn -1.000000 -0.000000 0.000000
vn -1.000000 -0.000000 0.000000
vn -1.000000 -0.000000 0.000000
vn -1.000000 -0.000000 0.000000
vn -1.000000 -0.000000 0.000000
vn -1.000000 -0.000000 0.000000
vn -1.000000 -0.000000 0.000000
vn -1.000000 -0.000000 0.000000
vn -1.000000 -0.000000 0.000000
vn -1.000000 -0.000000 0.000000
vn -1.000000 -0.000000 0.000000
vn 0.000000 1.000000 -0.000000
vn 0.000000 1.000000 -0.000000
vn 0.000000 1.000000 -0.000000
vn 0.000000 1.000000 -0.000000
vn 0.000000 1.000000 -0.000000
vn 0.000000 1.000000 -0.000000
vn 1.000000 -0.000000 -0.000000
vn 1.000000 -0.000000 -0.000000
vn 1.000000 -0.000000 -0.000000
vn 1.000000 -0.000000 -0.000000
vn 1.000000 -0.000000 -0.000000
vn 1.000000 -0.000000 -0.000000
vn 0.000000 1.000000 -0.000000
vn 0.000000 1.000000 -0.000000
vn 0.000000 1.000000 -0.000000
vn 0.000000 1.000000 -0.000000
vn 0.000000 1.000000 -0.000000
vn 0.000000 1.000000 -0.000000
vn -1.000000 -0.000000 0.000000
vn -1.000000 -0.000000 0.000000
vn -1.000000 -0.000000 0.000000
vn -1.000000 -0.000000 0.000000
vn -1.000000 -0.000000 0.000000
vn -1.000000 -0.000000 0.000000
vn 0.000000 -1.000000 0.000000
vn 0.000000 -1.000000 0.000000
vn 0.000000 -1.000000 0.000000
vn 0.000000 -1.000000 0.000000
vn 0.000000 -1.000000 0.000000
vn 0.000000 -1.000000 0.000000
vn -0.000000 -0.000000 1.000000
vn -0.000000 -0.000000 1.000000
vn -0.000000 -0.000000 1.000000
vn -0.000000 -0.000000 1.000000
vn -0.000000 -0.000000 1.000000
vn -0.000000 -0.000000 1.000000
vn 0.000000 -0.707107 -0.707107
vn 0.000000 -0.707107 -0.707107
vn 0.000000 -0.707107 -0.707107
vn 0.000000 -0.707107 -0.707107
vn 0.000000 -0.707107 -0.707107
vn 0.000000 -0.707107 -0.707107
vn 0.000000 -1.000000 0.000000
vn 0.000000 -1.000000 0.000000
vn 0.000000 -1.000000 0.000000
vn 0.000000 -1.000000 0.000000
vn 0.000000 -1.000000 0.000000
vn 0.000000 -1.000000 0.000000
vn 1.000000 -0.000000 -0.000000
vn 1.000000 -0.000000 -0.000000
vn 1.000000 -0.000000 -0.000000
vn 1.000000 -0.000000 -0.000000
vn 1.000000 -0.000000 -0.000000
vn 1.000000 -0.000000 -0.000000
vn 1.000000 -0.000000 -0.000000
vn 1.000000 -0.000000 -0.000000
vn 1.000000 -0.000000 -0.000000
vn 1.000000 -0.000000 -0.000000
vn 1.000000 -0.000000 -0.000000
vn 1.000000 -0.000000 -0.000000
vn 0.000000 0.707107 -0.707107
vn 0.000000 0.707107 -0.707107
vn 0.000000 0.707107 -0.707107
vn 0.000000 0.707107 -0.707107
vn 0.000000 0.707107 -0.707107
vn 0.000000 0.707107 -0.707107
vn -0.000000 -0.000000 1.000000
vn -0.000000 -0.000000 1.000000
vn -0.000000 -0.000000 1.000000
vn -0.000000 -0.000000 1.000000
vn -0.000000 -0.000000 1.000000
vn -0.000000 -0.000000 1.000000
vn -0.000000 -0.000000 1.000000
vn -0.000000 -0.000000 1.000000
vn -0.000000 -0.000000 1.000000
vn -0.000000 -0.000000 1.000000
vn -0.000000 -0.000000 1.000000
vn -0.000000 -0.000000 1.000000
vn -0.000000 -0.000000 1.000000
vn -0.000000 -0.000000 1.000000
vn -0.000000 -0.000000 1.000000
vn -0.000000 -0.000000 1.000000
vn -0.000000 -0.000000 1.000000
vn -0.000000 -0.000000 1.000000
vn -0.000000 -0.000000 1.000000
vn -0.000000 -0.000000 1.000000
vn -0.000000 -0.000000 1.000000
vn -0.000000 -0.000000 1.000000
vn -0.000000 -0.000000 1.000000
vn -0.000000 -0.000000 1.000000
vn 0.000000 0.000000 -1.000000
vn 0.000000 0.000000 -1.000000
vn 0.000000 0.000000 -1.000000
vn 0.000000 0.000000 -1.000000
vn 0.000000 0.000000 -1.000000
vn 0.000000 0.000000 -1.000000
s off
g _dumpster_5:Deponie4
usemtl _dumpster_5:Deponie3:phong1SG
f 2//1 4//2 1//3
f 1//4 4//5 3//6
f 26//7 2//8 25//9
f 25//10 2//11 1//12
f 28//13 26//14 27//15
f 27//16 26//17 25//18
usemtl Deponie3:phong1SG
f 4//19 28//20 3//21
f 3//22 28//23 27//24
usemtl _dumpster_5:Deponie3:phong1SG
f 6//25 1//26 10//27
f 6//28 20//29 1//30
f 1//31 20//32 25//33
f 25//34 20//35 24//36
f 27//37 24//38 10//39
f 3//40 10//41 1//42
f 3//43 27//44 10//45
f 25//46 24//47 27//48
f 6//49 10//50 5//51
f 5//52 10//53 9//54
f 7//55 9//56 8//57
f 7//58 5//59 9//60
f 10//61 24//62 9//63
f 9//64 24//65 23//66
usemtl _dumpster_5:Deponie3:phong2SG
f 14//67 12//68 13//69
f 13//70 12//71 11//72
usemtl _dumpster_5:Deponie3:phong1SG
f 12//73 16//74 11//75
f 11//76 16//77 15//78
f 16//79 18//80 15//81
f 15//82 18//83 17//84
f 18//85 14//86 17//87
f 17//88 14//89 13//90
usemtl _dumpster_5:Deponie3:phong2SG
f 17//91 13//92 15//93
f 15//94 13//95 11//96
usemtl _dumpster_5:Deponie3:phong1SG
f 19//97 5//98 21//99
f 21//100 5//101 7//102
f 20//103 6//104 19//105
f 19//106 6//107 5//108
f 24//109 20//110 23//111
f 23//112 20//113 19//114
f 22//115 19//116 21//117
f 22//118 23//119 19//120
f 9//121 23//122 8//123
f 8//124 23//125 22//126
f 26//127 28//128 18//129
f 16//130 26//131 18//132
f 16//133 12//134 26//135
f 26//136 12//137 2//138
f 2//139 12//140 14//141
f 4//142 14//143 18//144
f 28//145 4//146 18//147
f 4//148 2//149 14//150
f 21//151 7//152 22//153
f 22//154 7//155 8//156
